<?xml version="1.0" encoding="UTF-8" standalone="no"?>
<!DOCTYPE svg PUBLIC "-//W3C//DTD SVG 1.1//EN" "http://www.w3.org/Graphics/SVG/1.1/DTD/svg11.dtd">
<svg width="100%" height="100%" viewBox="0 0 1024 1024" version="1.1" xmlns="http://www.w3.org/2000/svg" xmlns:xlink="http://www.w3.org/1999/xlink" xml:space="preserve" xmlns:serif="http://www.serif.com/" style="fill-rule:evenodd;clip-rule:evenodd;stroke-linejoin:round;stroke-miterlimit:2;">
    <g transform="matrix(1,0,0,1,-2185.68,-778.04)">
        <g id="Artboard5" transform="matrix(1,0,0,1.49237,-1084.99,778.04)">
            <rect x="3270.67" y="0" width="1024" height="686.159" style="fill:none;"/>
            <g transform="matrix(1.38258,0,0,1.38258,-1417.96,-103.4)">
                <g transform="matrix(2.07132,0,0,1.55389,443.218,-121.663)">
                    <path d="M1752.75,246.958C1756.92,259.375 1759.16,272.518 1759.16,286.118C1759.16,362.364 1688.76,424.266 1602.03,424.266C1515.3,424.266 1444.89,362.364 1444.89,286.118C1444.89,209.872 1515.3,147.969 1602.03,147.969C1664.74,147.969 1718.91,180.33 1744.11,227.076C1740.69,226.921 1737.39,227.125 1735.21,227.568C1734.26,227.763 1733.15,227.89 1731.95,227.979C1707.8,186.495 1658.64,158.089 1602.03,158.089C1521.61,158.089 1456.22,215.412 1456.22,286.118C1456.22,356.823 1521.61,414.146 1602.03,414.146C1682.45,414.146 1747.84,356.823 1747.84,286.118C1747.84,273.417 1745.73,261.148 1741.8,249.565C1742.79,249.198 1743.87,249.009 1744.95,248.802C1746.76,248.453 1748.59,248.159 1750.31,247.716C1751.15,247.5 1751.97,247.25 1752.75,246.958Z" style="fill:rgb(24,43,53);"/>
                </g>
                <g transform="matrix(0.238713,0,0,0.17908,3509.93,218.719)">
                    <path d="M1602.03,147.969C1688.76,147.969 1759.16,209.872 1759.16,286.118C1759.16,362.364 1688.76,424.266 1602.03,424.266C1515.3,424.266 1444.89,362.364 1444.89,286.118C1444.89,209.872 1515.3,147.969 1602.03,147.969ZM1602.03,235.78C1569.99,235.78 1543.2,257.946 1543.2,286.118C1543.2,314.289 1569.99,336.455 1602.03,336.455C1634.07,336.455 1660.86,314.289 1660.86,286.118C1660.86,257.946 1634.07,235.78 1602.03,235.78Z" style="fill:rgb(24,43,53);"/>
                </g>
                <g transform="matrix(0.540845,0,0,0.405737,2883.77,93.2864)">
                    <path d="M1602.03,147.969C1688.76,147.969 1759.16,209.872 1759.16,286.118C1759.16,362.364 1688.76,424.266 1602.03,424.266C1515.3,424.266 1444.89,362.364 1444.89,286.118C1444.89,209.872 1515.3,147.969 1602.03,147.969ZM1602.03,186.726C1539.44,186.726 1488.29,231.091 1488.29,286.118C1488.29,341.144 1539.44,385.509 1602.03,385.509C1664.62,385.509 1715.77,341.144 1715.77,286.118C1715.77,231.091 1664.62,186.726 1602.03,186.726Z" style="fill:rgb(24,43,53);"/>
                </g>
                <g transform="matrix(0.540845,0,0,0.405737,2760.4,284.164)">
                    <path d="M1602.03,147.969C1688.76,147.969 1759.16,209.872 1759.16,286.118C1759.16,362.364 1688.76,424.266 1602.03,424.266C1515.3,424.266 1444.89,362.364 1444.89,286.118C1444.89,209.872 1515.3,147.969 1602.03,147.969ZM1602.03,186.726C1539.44,186.726 1488.29,231.091 1488.29,286.118C1488.29,341.144 1539.44,385.509 1602.03,385.509C1664.62,385.509 1715.77,341.144 1715.77,286.118C1715.77,231.091 1664.62,186.726 1602.03,186.726Z" style="fill:rgb(24,43,53);"/>
                </g>
                <g transform="matrix(0.214025,-2.80503e-19,4.68662e-19,-0.163124,3284.11,445.299)">
                    <ellipse cx="1602.03" cy="286.118" rx="157.136" ry="138.148" style="fill:rgb(3,123,165);"/>
                </g>
                <g transform="matrix(0.0888061,0,0,-0.0666216,3484.71,417.688)">
                    <ellipse cx="1602.03" cy="286.118" rx="157.136" ry="138.148" style="fill:white;"/>
                </g>
                <g transform="matrix(1.53289,-1.12861e-05,-3.43683e-05,0.596626,1482.3,262.839)">
                    <path d="M1380.75,62.274C1380.75,69.547 1377.32,75.453 1373.1,75.455C1368.87,75.456 1365.44,69.553 1365.44,62.279L1365.41,-118.995C1365.41,-126.268 1368.84,-132.175 1373.06,-132.176C1377.29,-132.178 1380.72,-126.274 1380.72,-119.001L1380.75,62.274Z" style="fill:rgb(24,43,53);"/>
                </g>
                <g transform="matrix(1.53289,2.14183e-05,-4.53077e-06,0.68736,1426.61,302.69)">
                    <path d="M1380.75,62.274C1380.75,68.587 1377.32,73.714 1373.1,73.715C1368.87,73.717 1365.44,68.592 1365.44,62.279L1365.41,-118.995C1365.41,-125.308 1368.84,-130.435 1373.06,-130.437C1377.29,-130.438 1380.72,-125.314 1380.72,-119.001L1380.75,62.274Z" style="fill:rgb(24,43,53);"/>
                </g>
                <g transform="matrix(1.53289,-6.53742e-05,-8.3715e-05,0.446565,1655.06,490.494)">
                    <path d="M1380.75,62.274C1380.75,71.991 1377.32,79.882 1373.1,79.883C1368.87,79.885 1365.44,71.997 1365.44,62.279L1365.41,-118.995C1365.41,-128.713 1368.84,-136.603 1373.06,-136.605C1377.29,-136.606 1380.72,-128.718 1380.72,-119.001L1380.75,62.274Z" style="fill:rgb(24,43,53);"/>
                </g>
                <g transform="matrix(1.53289,-8.80157e-05,-0.000104372,0.383748,1730.58,488.111)">
                    <path d="M1380.75,62.274C1380.75,73.582 1377.32,82.764 1373.1,82.765C1368.87,82.767 1365.44,73.587 1365.44,62.279L1365.41,-118.995C1365.41,-130.303 1368.84,-139.485 1373.06,-139.487C1377.29,-139.488 1380.72,-130.309 1380.72,-119.001L1380.75,62.274Z" style="fill:rgb(24,43,53);"/>
                </g>
                <g transform="matrix(1.53289,-0.000135811,-0.000147977,0.251145,1585.06,500.863)">
                    <path d="M1380.75,62.274C1380.75,79.552 1377.32,93.582 1373.1,93.583C1368.87,93.585 1365.44,79.558 1365.44,62.279L1365.41,-118.995C1365.41,-136.274 1368.84,-150.303 1373.06,-150.305C1377.29,-150.306 1380.72,-136.279 1380.72,-119.001L1380.75,62.274Z" style="fill:rgb(24,43,53);"/>
                </g>
                <g transform="matrix(1.53289,-0.0001436,-0.000155084,0.229535,1788.03,492.731)">
                    <path d="M1380.75,62.274C1380.75,81.179 1377.32,96.529 1373.1,96.531C1368.87,96.532 1365.44,81.185 1365.44,62.279L1365.41,-118.995C1365.41,-137.901 1368.84,-153.251 1373.06,-153.252C1377.29,-153.254 1380.72,-137.906 1380.72,-119.001L1380.75,62.274Z" style="fill:rgb(24,43,53);"/>
                </g>
                <g transform="matrix(1.53289,-0.000135811,-0.000147977,0.251145,1853.17,478.09)">
                    <path d="M1337.08,-36.037C1334.37,-22.785 1329.54,-21.029 1326.3,-32.117C1323.05,-43.205 1322.62,-62.966 1325.33,-76.218L1353.64,-214.658C1356.35,-227.91 1361.18,-229.666 1364.42,-218.578C1367.66,-207.489 1368.09,-187.729 1365.38,-174.477L1337.08,-36.037Z" style="fill:rgb(24,43,53);"/>
                </g>
                <g transform="matrix(0.258242,-3.38454e-19,5.65487e-19,-0.196825,3336.51,265.69)">
                    <ellipse cx="1602.03" cy="286.118" rx="157.136" ry="138.148" style="fill:rgb(3,123,165);"/>
                </g>
                <g transform="matrix(0.0888061,0,0,-0.0666216,3599.82,218.029)">
                    <ellipse cx="1602.03" cy="286.118" rx="157.136" ry="138.148" style="fill:white;"/>
                </g>
                <g transform="matrix(0.0888061,0,0,-0.0666216,3599.82,218.029)">
                    <path d="M1602.03,147.969C1515.3,147.969 1444.89,209.872 1444.89,286.118C1444.89,362.364 1515.3,424.266 1602.03,424.266C1688.76,424.266 1759.16,362.364 1759.16,286.118C1759.16,209.872 1688.76,147.969 1602.03,147.969ZM1602.03,384.007C1541.75,384.007 1494.91,339.114 1494.91,286.118C1494.91,233.121 1541.75,188.229 1602.03,188.229C1662.31,188.229 1709.15,233.121 1709.15,286.118C1709.15,339.114 1662.31,384.007 1602.03,384.007Z" style="fill:none;"/>
                </g>
                <g transform="matrix(0.129823,0,0,-0.097392,3700.73,226.827)">
                    <ellipse cx="1602.03" cy="286.118" rx="157.136" ry="138.148" style="fill:rgb(24,43,53);"/>
                </g>
                <g transform="matrix(0.13189,-7.02824e-19,1.17427e-18,-0.105368,3656.49,398.794)">
                    <ellipse cx="1602.03" cy="286.118" rx="157.136" ry="138.148" style="fill:rgb(3,123,165);"/>
                </g>
                <g transform="matrix(0.129823,0,0,-0.097392,3551.86,462.042)">
                    <ellipse cx="1602.03" cy="286.118" rx="157.136" ry="138.148" style="fill:rgb(24,43,53);"/>
                </g>
                <g transform="matrix(0.129823,0,0,-0.097392,3627.38,460.828)">
                    <ellipse cx="1602.03" cy="286.118" rx="157.136" ry="138.148" style="fill:rgb(24,43,53);"/>
                </g>
                <g transform="matrix(0.129823,0,0,-0.097392,3729.73,453.541)">
                    <ellipse cx="1602.03" cy="286.118" rx="157.136" ry="138.148" style="fill:rgb(24,43,53);"/>
                </g>
                <g transform="matrix(0.129823,0,0,-0.097392,3385.35,331.277)">
                    <ellipse cx="1602.03" cy="286.118" rx="157.136" ry="138.148" style="fill:rgb(24,43,53);"/>
                </g>
                <g transform="matrix(1.76008,0,0,1.17939,3501.43,231.363)">
                    <path d="M272,53C264.77,48.39 245.89,43.93 238.75,50.75C231.61,57.57 226.47,67.44 223,76C232.09,74.59 249.81,84.32 257.08,78.08C264.36,71.84 265.13,59.75 272,53Z" style="fill:rgb(24,43,53);fill-rule:nonzero;"/>
                </g>
                <g transform="matrix(1.76008,0,0,1.17939,3501.43,231.363)">
                    <path d="M267,82C266.82,88.27 274.46,93.78 278.31,97.69C282.15,101.61 298.02,103.84 297.32,97.68C296.62,91.52 291.45,84.5 289.32,78.68C287.19,72.86 284.49,66.76 279,63C274.89,69.18 273.47,78.5 267,82Z" style="fill:rgb(24,43,53);fill-rule:nonzero;"/>
                </g>
                <g transform="matrix(1.76008,0,0,1.17939,3501.43,231.363)">
                    <path d="M221,131C230.24,131.89 238.19,128.89 246.99,127.99C255.79,127.1 261.64,124.47 270.32,122.32C279,120.17 280.49,113.95 273.25,107.75C266,101.56 258.14,103.92 249.22,102.78C240.3,101.63 230.32,102.01 221,102C220.66,111.8 223.42,121.43 221,131Z" style="fill:rgb(24,43,53);fill-rule:nonzero;"/>
                </g>
                <g transform="matrix(1.76008,0,0,1.17939,3501.43,231.363)">
                    <path d="M17,140C10.666,144.505 5.747,148.971 1,154C6.28,165.165 16.319,179.673 26.444,189.465C36.569,199.257 54.309,215.649 61.75,212.75C66.783,210.789 76.87,193.812 79.908,192.246C49.608,201.752 16.019,172.077 17,140Z" style="fill:rgb(24,43,53);fill-rule:nonzero;"/>
                </g>
                <g transform="matrix(1.76008,0,0,1.17939,3501.43,231.363)">
                    <path d="M280,31C288.04,29.93 299.78,30.61 306.32,25.32C312.87,20.03 323.76,23.14 328.07,15.07C332.39,7.01 313.11,5.38 306,7C298.89,8.62 285.34,7.18 278,10C279.43,16.81 278.86,24.13 280,31Z" style="fill:rgb(24,43,53);fill-rule:nonzero;"/>
                </g>
                <g transform="matrix(1.76008,0,0,1.17939,3501.43,231.363)">
                    <path d="M275,33C274.226,30.977 274.212,14.063 270.356,11.595C267.846,9.988 243.026,14.115 241.555,16.428C239.497,19.664 247.85,32.643 246.215,35.858C257.095,36.708 264.87,35.01 275,33Z" style="fill:rgb(24,43,53);fill-rule:nonzero;"/>
                </g>
                <g transform="matrix(1.76008,0,0,1.17939,3501.43,231.363)">
                    <path d="M159,105C169.428,91.916 196.277,94.918 209.683,72.042C217.175,59.257 204.325,52.451 202.223,46.408C201,42.892 198.124,31.719 196.901,28.204C192.957,30.356 188.122,30.506 184.178,32.658C170.126,40.325 122.382,72.506 117.08,76.08C91.735,93.163 118.578,119.098 119.287,119.797C123.715,124.157 143.481,143.624 196,132C196.053,128.515 195.459,125.047 195.372,121.563C195.204,114.861 198.552,104.439 197.151,103.16C194.458,100.703 160.14,104.514 159,105" style="fill:rgb(24,43,53);fill-rule:nonzero;"/>
                </g>
            </g>
        </g>
    </g>
</svg>
